<svg width="743.35143" height="590.0931" xmlns="http://www.w3.org/2000/svg">
 <title>travel_mode</title>

 <g>
  <title>background</title>
  <rect fill="none" id="canvas_background" height="602" width="802" y="-1" x="-1"/>
 </g>
 <g>
  <title>Layer 1</title>
  <path id="svg_1" fill="#d0cde1" d="m659.89886,551.68142l74.0679,-110.1464l-73.91642,121.996l0.15457,12.39423q-8.11087,0.06186 -16.06418,-0.27012l3.6736,-159.31973l-0.10064,-1.22909l0.13555,-0.23748l0.35161,-15.05475l-81.11313,-117.76674l81.01739,106.49915l0.2875,3.1821l2.77475,-120.37228l-70.05982,-122.09716l70.25938,100.95122l-0.73335,-249.38034l0.00156,-0.83l0.02384,0.8163l4.65075,196.54522l63.85119,-79.8368l-63.64219,96.7688l1.39359,107.6702l58.75622,-105.082l-58.54025,120.91133l0.77575,59.87006l85.44741,-146.378l-85.18764,167.26411l1.73506,133.13217z"/>
  <ellipse id="svg_2" fill="#d0cde1" ry="16" rx="314" cy="574.0931" cx="376.58697"/>
  <circle id="svg_3" fill="#3f3d56" r="9.50475" cy="575.77345" cx="560.05571"/>
  <path id="svg_4" fill="#3f3d56" d="m561.35182,378.33396l-25.058,-66.53322s3.88831,-12.529 -6.4805,-11.66492s-38.019,10.36882 -38.019,10.36882s-9.50474,0.86406 3.45627,14.25711l22.46577,70.42153l7.34457,-3.45627l-24.19386,-69.98946s-1.2961,-4.75238 3.45628,-6.04848s22.89779,-9.07271 24.62593,-4.32034s24.1939,73.01373 24.1939,73.01373l8.20864,-6.0485z"/>
  <path id="svg_5" fill="#00754b" d="m493.95453,424.12955l48.3878,144.73136a52.01838,52.01838 0 0 0 12.62839,6.10464a66.21863,66.21863 0 0 0 12.42962,2.96807a15.02728,15.02728 0 0 0 4.69621,-0.37155c24.88084,-4.96839 110.22481,-50.60845 110.22481,-50.60845s-43.63542,-136.09068 -50.98,-152.508s-23.76186,-10.36881 -23.76186,-10.36881s-82.92891,22.3923 -94.83144,26.55279q-0.36941,0.12957 -0.648,0.23331a26.94246,26.94246 0 0 0 -12.9567,9.93246l-0.00432,0.00432c-12.09705,7.34461 -5.18451,23.32986 -5.18451,23.32986z"/>
  <path id="svg_6" opacity="0.2" d="m528.68854,385.38655l0.23374,0.832c3.74443,-1.04887 6.93532,7.30449 6.967,7.38845l53.13844,147.3181l0.81259,-0.2928l-6.73786,-18.67975l72.37385,-31.96713l5.69942,16.37275l0.816,-0.28436l-47.53981,-136.56912l-0.02616,-0.04135c-0.16876,-0.26749 -4.17647,-6.53114 -8.9318,-5.27l0.22108,0.83537c3.97227,-1.0573 7.6146,4.33764 7.95382,4.85574l10.06237,28.9063l-76.08274,24.87069l-10.94833,-30.3527c-0.14303,-0.38056 -3.50395,-9.18494 -8.01161,-7.92219zm95.32671,14.2201l7.41224,21.29333l-74.90127,27.37379l-8.5845,-23.79941l76.07353,-24.86771zm-58.64553,73.1843l-8.55021,-23.70427l74.89217,-27.37039l7.359,21.14023l-73.70096,29.93443zm73.98541,-29.11724l8.06746,23.17551l-73.576,29.44254l-8.18345,-22.68721l73.69199,-29.93084zm-56.54666,77.46369l-8.66852,-24.03225l73.567,-29.4389l7.48426,21.50012l-72.38274,31.97103z"/>
  <path id="svg_7" opacity="0.2" d="m499.13894,418.94514c4.32034,6.91255 52.70813,151.6439 52.70813,151.6439a27.65579,27.65579 0 0 0 3.1236,4.37651a66.21863,66.21863 0 0 0 12.42962,2.96807a15.02728,15.02728 0 0 0 4.69621,-0.37155c-2.97239,-1.07148 -9.61275,-4.54068 -12.90485,-14.74964c-4.32034,-13.39305 -51.84407,-154.66813 -51.84407,-154.66813s1.48617,-10.654 5.40043,-17.51467q-0.36941,0.12957 -0.648,0.23331a26.94246,26.94246 0 0 0 -12.9567,9.93246l-0.00432,0.00432s-4.32039,11.23288 -0.00005,18.14542z"/>
  <path id="svg_8" fill="#3f3d56" d="m507.77962,450.91565l4.75237,14.68915s-3.88827,28.94628 16.41729,47.95575l4.32034,14.68915l-4.46431,0.121l-4.7149,-14.10259s-15.66243,-18.89254 -15.77059,-47.171l-3.99647,-16.1815l3.45627,0.00004z"/>
  <circle id="svg_9" fill="#3f3d56" r="9.50475" cy="575.98946" cx="589.218"/>
  <circle id="svg_10" fill="#3f3d56" r="9.50475" cy="536.02633" cx="681.45724"/>
  <path id="svg_11" fill="#00754b" d="m340.08698,131.5931s-22,4 -23,13a105.38739,105.38739 0 0 0 0,19l23,-32z"/>
  <path id="svg_12" fill="#575a89" d="m466.08698,341.5931s-64,23 -106,3s-93,-45 -93,-45s-25,2 -22,-13s23,-102 69,-131c0,0 28,-36 44,-34s78,150 78,150l30,70z"/>
  <path fill="#00754b" id="svg_13" d="m466.08698,341.5931s-64,23 -106,3s-93,-45 -93,-45s-25,2 -22,-13s23,-102 69,-131c0,0 28,-36 44,-34s78,150 78,150l30,70z"/>
  <path id="svg_14" fill="#a0616a" d="m500.08698,287.5931l4,10s26,16 15,27s-27.55789,-18.5 -27.55789,-18.5l-6.44211,-12.5l15,-6z"/>
  <polygon id="svg_15" fill="#a0616a" points="281.087 466.593 277.087 535.593 298.087 544.593 306.087 461.593 281.087 466.593"/>
  <polygon id="svg_16" fill="#a0616a" points="366.087 466.593 394.087 502.593 402.087 526.593 422.087 525.593 427.087 501.593 399.087 473.593 366.087 466.593"/>
  <circle id="svg_17" fill="#a0616a" r="27" cy="86.0931" cx="363.58697"/>
  <path id="svg_18" fill="#a0616a" d="m358.08698,106.5931l2,25l32,-10s-12,-19 -9,-24l-25,9z"/>
  <path id="svg_19" fill="#d0cde1" d="m358.08698,121.5931s18.9463,5 29.97315,-7l23.02685,11l-30,112l-63,-17l10,-22s-13,-15 1,-29c0,0 3,-28 12,-34a128.68928,128.68928 0 0 0 17,-14z"/>
  <path id="svg_20" fill="#00754b" d="m388.58698,114.0931s-34,27 3,107s68,148 80,144s53,-35 39,-46s-73,-46 -81,-92s11,-93 11,-93l-52,-20z"/>
  <polygon id="svg_21" fill="#00754b" points="425.087 144.593 511.087 289.593 487.087 299.593 413.087 199.593 425.087 144.593"/>
  <path id="svg_22" fill="#2f2e41" d="m323.08698,217.5931l-7,0l-26,56s-49,148 -44,178s191.00366,25.96271 181,25c-9.51776,-0.916 -59.03433,-228.94687 -44.5,-241.5l-59.5,-17.5z"/>
  <path id="svg_23" fill="#00754b" d="m284.08698,527.5931s-2,-8 -10,-8s-8,11 -8,11l-23,21s-20,25 6,25s26,-6 26,-6s7,-7 13,-3s20,-4 18,-8s-4.98774,-29.8772 -6.99387,-25.4386s-15.00613,-6.5614 -15.00613,-6.5614z"/>
  <path id="svg_24" fill="#00754b" d="m417.08698,515.5931s2,-1 -8,0s-14,0 -14,0l7,27s-6,46 14,42s20,-32 20,-32s-3,-25 -1,-27s1,-29 -2,-29s-17.47974,-6.47974 -17.47974,-6.47974s9.47974,25.47974 1.47974,25.47974z"/>
  <path id="svg_25" fill="#2f2e41" d="m364.40761,87.70941c-1.67994,-2.58574 -0.831,-6.10158 -2.00909,-8.95119c-1.85,-4.47477 -7.5998,-5.52305 -12.42469,-5.93132a37.03362,37.03362 0 0 0 -9.62667,0.02576a9.23944,9.23944 0 0 0 -6.6765,4.84072c-0.71386,1.43163 -0.53372,-3.05394 -0.07641,-8.812a27.83336,27.83336 0 0 1 21.34582,-24.9006q0.10226,-0.024 0.20266,-0.04719c5.87444,-1.35517 11.93161,-2.35246 17.91916,-1.649s11.95565,3.28808 15.69238,8.01908c1.70785,2.16228 2.91549,4.7121 4.822,6.70146c3.34964,3.49529 8.31543,4.76715 12.87689,6.389a38.85288,38.85288 0 0 1 14.11955,8.14611c3.94576,3.79583 6.74256,8.99732 6.82518,14.47185c0.09639,6.386 -3.96586,12.97629 -10.51157,14.23532a7.34878,7.34878 0 0 0 -3.13888,1.35458c-6.25012,4.84611 0.87963,9.91914 0.83022,15.37477c-0.04124,4.55233 -5.10907,7.51929 -9.65664,7.73155a18.32259,18.32259 0 0 1 -18.2491,-14.49776c-0.68556,-3.736 -0.15617,-7.57306 0.28983,-11.34511c0.51054,-4.31784 -8.788,-14.48493 -2.64565,-7.03272a10.68754,10.68754 0 0 1 2.34835,4.94466c1.02231,5.95337 -4.39531,7.95589 -7.81171,11.25467a14.1561,14.1561 0 0 0 -3.4267,14.57122a16.32046,16.32046 0 0 1 -2.9662,-20.60961c1.10053,-1.6878 2.51845,-3.15614 3.56207,-4.8797c1.62847,-2.68945 2.07756,-8.53924 -2.4805,-8.3786c-3.2534,0.11471 -6.63297,2.82327 -9.1338,-1.02595z"/>
  <path id="svg_26" fill="#d0cde1" d="m137.23507,561.83523s-40.1465,-74.10249 -137.23507,-42.06014l137.23507,42.06014z"/>
  <path id="svg_27" fill="#d0cde1" d="m139.65579,560.02439s-49.649,-63.1088 22.01179,-141.83793l-22.01179,141.83793z"/>
 </g>
</svg>