<svg width="385.81" height="295.51" xmlns="http://www.w3.org/2000/svg">
 <defs>
  <linearGradient y2="2.73042" x2="0.44623" y1="-1.43542" x1="0.54568" id="linear-gradient">
   <stop offset="0.01"/>
   <stop stop-opacity="0.69" offset="0.13"/>
   <stop stop-opacity="0.32" offset="0.25"/>
   <stop stop-opacity="0" offset="1"/>
  </linearGradient>
 </defs>
 <title>1</title>
 <g>
  <title>background</title>
  <rect fill="none" id="canvas_background" height="602" width="802" y="-1" x="-1"/>
 </g>
 <g>
  <title>Layer 1</title>
  <path id="svg_3" fill="#00e4b6" d="m266.85,243.17l-64.47,-0.38a8.2,8.2 0 0 1 -8.2,-8.21l0,-109.86a8.2,8.2 0 0 1 8.2,-8.2l66.47,0a8.2,8.2 0 0 1 8.2,8.2l-1.95,110.25a8.21,8.21 0 0 1 -8.25,8.2z"/>
  <path id="svg_4" opacity="0.1" fill="#020202" d="m269.99,149.78l-10.14,2.58a99.66,99.66 0 0 1 -49.13,0l-10.11,-2.58l0,-26l69.35,0l0.03,26z"/>
  <rect id="svg_5" fill="#fff" height="16.3" width="61.61" y="127.68" x="204.79"/>
  <rect id="svg_6" opacity="0.1" fill="#020202" height="13.63" width="13.23" y="166.21" x="204.82"/>
  <rect id="svg_7" opacity="0.1" fill="#020202" height="13.63" width="13.23" y="166.21" x="220.91"/>
  <rect id="svg_8" opacity="0.1" fill="#020202" height="13.63" width="13.23" y="166.21" x="236.99"/>
  <rect id="svg_9" opacity="0.1" fill="#020202" height="13.63" width="13.23" y="166.21" x="252.59"/>
  <rect id="svg_10" opacity="0.1" fill="#020202" height="13.63" width="13.23" y="183.42" x="204.82"/>
  <rect id="svg_11" opacity="0.1" fill="#020202" height="13.63" width="13.23" y="183.42" x="220.91"/>
  <rect id="svg_12" opacity="0.1" fill="#020202" height="13.63" width="13.23" y="183.42" x="236.99"/>
  <rect id="svg_13" opacity="0.1" fill="#020202" height="13.63" width="13.23" y="183.42" x="252.59"/>
  <rect id="svg_14" opacity="0.1" fill="#020202" height="30.83" width="13.23" y="200.63" x="252.59"/>
  <rect id="svg_15" opacity="0.1" fill="#020202" height="13.63" width="13.23" y="200.63" x="204.82"/>
  <rect id="svg_16" opacity="0.1" fill="#020202" height="13.63" width="13.23" y="200.63" x="220.91"/>
  <rect id="svg_17" opacity="0.1" fill="#020202" height="13.63" width="13.23" y="200.63" x="236.99"/>
  <rect id="svg_18" opacity="0.1" fill="#020202" height="13.63" width="13.23" y="217.83" x="204.82"/>
  <rect id="svg_19" opacity="0.1" fill="#020202" height="13.63" width="13.23" y="217.83" x="220.91"/>
  <rect id="svg_20" opacity="0.1" fill="#020202" height="13.63" width="13.23" y="217.83" x="236.99"/>
  <path id="svg_21" fill="#f9d0b4" d="m138.08,89.04c0.12,0 0,-0.18 -0.08,-0.22a14.58,14.58 0 0 0 -1.76,-0.21a2.26,2.26 0 0 1 -1.55,-0.76a2.8,2.8 0 0 1 -0.44,-1.34l-1.1,-7.46c-0.9,-6.06 -0.39,-12.1 -0.7,-18.22a6.29,6.29 0 0 1 0.09,-1.89a12.64,12.64 0 0 1 0.54,-1.45a14.09,14.09 0 0 0 0.54,-5.86a1.67,1.67 0 0 0 -0.52,-1.4c-0.79,-0.51 -1.66,0.5 -2.05,1.36l-1,2.24a0.69,0.69 0 0 1 -0.21,0.31a0.7,0.7 0 0 1 -0.6,0c-1.65,-0.45 -3.46,-1 -4.33,-2.49c-0.64,-1.09 -0.78,-2.67 -2,-3.15a2.17,2.17 0 0 0 -2.6,1.37a6.44,6.44 0 0 0 -0.15,3.21c0.27,2.14 0.6,4.39 1.95,6.06a19,19 0 0 1 1.74,2.07a7.23,7.23 0 0 1 0.68,3.42l0.68,23.34c0.06,2.32 0.18,4.78 1.52,6.67c1.67,2.34 4.74,3.13 7.56,3.66a10.93,10.93 0 0 0 4.33,0.21a4,4 0 0 0 3.12,-2.72a4.8,4.8 0 0 0 -0.95,-3.56c-0.67,-1.06 -2.24,-2.02 -2.71,-3.19z"/>
  <path id="svg_22" fill="#e2b596" d="m127.77,57.11a9.35,9.35 0 0 1 -3.54,0.25a3.24,3.24 0 0 1 -2.25,-0.72a3.12,3.12 0 0 1 -0.48,-2.46a0.5,0.5 0 0 1 0.12,-0.34a0.52,0.52 0 0 1 0.39,-0.07l5.63,0.49c0.83,0.07 2.58,-0.19 2.23,1a3.28,3.28 0 0 1 -2.1,1.85z"/>
  <path id="svg_23" fill="#00e4b6" d="m216.47,107.13l-9.56,1.82l-5.23,1l-5,-7.39c-2.42,-2.27 -2.38,-2.74 -3.75,0.28c-3.76,8.26 -9.93,23.37 -10.41,34.68l-3,-0.34l-38.35,-4.51l10.68,-34.56l-14.07,1.44l-2.48,-11.65l22.93,-7.49a36.59,36.59 0 0 1 7.34,-1.25c7.3,-0.46 20.41,-1 28.65,2.22c10.97,4.18 22.25,25.75 22.25,25.75z"/>
  <path id="svg_24" fill="#f9d0b4" d="m214.97,106.48s4.09,6.3 3.07,8.75s-22.19,11.45 -22.19,11.45c-1.5,0.06 -2.53,1.63 -3,3.07a34.45,34.45 0 0 0 -0.78,4.65a6.37,6.37 0 0 1 -2.08,4.11a2.49,2.49 0 0 1 -1.59,0.58a2.71,2.71 0 0 1 -1.11,-0.34a5.83,5.83 0 0 1 -2.75,-4.64a12,12 0 0 1 1.09,-5.46l-2.48,0c-0.4,-0.84 0.8,-1.47 1.67,-1.76c3.75,-1.25 20.33,-13.9 20.45,-14.81s-2.52,-3 -2.52,-3a27.73,27.73 0 0 1 12.22,-2.6z"/>
  <path id="svg_25" fill="#f9d0b4" d="m167.68,69.39a9.34,9.34 0 0 0 0.37,2.74a6.29,6.29 0 0 0 1.65,2.65c0.75,0.72 1.77,1.18 2,2.29a5,5 0 0 1 -0.14,2.06a14.94,14.94 0 0 0 -0.47,2.47a3.45,3.45 0 0 0 0.63,2.37a3.86,3.86 0 0 0 3,1.21a5.37,5.37 0 0 0 4.32,-1.72a10.88,10.88 0 0 0 1.45,-3.33c0.46,-1.34 0.82,-2.71 1.32,-4a77.39,77.39 0 0 0 2.77,-7.83a13.47,13.47 0 0 0 -0.22,-8.49c-1,-2.26 -4.13,-3.34 -6.43,-3.38a10.45,10.45 0 0 0 -6.76,2.47c-1.44,1.27 -2.19,3.57 -2.72,5.33a17.51,17.51 0 0 0 -0.77,5.16z"/>
  <path id="svg_26" fill="#473f47" d="m169.6,58.06a4.86,4.86 0 0 1 -1,-1.71a8.44,8.44 0 0 1 -0.45,-4.91a5.36,5.36 0 0 1 3,-3.74a5.86,5.86 0 0 1 2.34,-0.4a3.63,3.63 0 0 1 1.22,0.2c1.62,0.62 2,2.84 3.45,3.83a1.46,1.46 0 0 1 1.39,-1.11a2,2 0 0 1 1.56,0.92a11.35,11.35 0 0 1 0.9,1.64a7.73,7.73 0 0 0 2.22,2.57a0.73,0.73 0 0 0 0.47,0.2c0.21,0 0.38,-0.17 0.58,-0.26c0.59,-0.24 1.21,0.33 1.41,0.93a16.05,16.05 0 0 0 0.43,1.85c0.35,0.75 1.15,1.18 1.69,1.8a4.49,4.49 0 0 1 0.36,4.76a13.18,13.18 0 0 1 -3.23,3.84a0.9,0.9 0 0 0 -1.24,-0.21a4.23,4.23 0 0 0 -1,1a1.53,1.53 0 0 1 -1.2,0.65c-0.06,-1.44 0.7,-2.8 0.83,-4.24a6,6 0 0 0 -3.11,-5.4a10.62,10.62 0 0 0 -6.36,-1.12c-1.3,0.12 -3.25,-0.04 -4.26,-1.09z"/>
  <path id="svg_27" fill="#f9d0b4" d="m184.85,67.45a2.06,2.06 0 0 1 1.31,-0.13a1.56,1.56 0 0 1 0.92,1.49a3.06,3.06 0 0 1 -0.7,1.89a7.34,7.34 0 0 1 -1.53,1.37a2.3,2.3 0 0 1 -1.08,0.51a1.53,1.53 0 0 1 -1.53,-1a2.54,2.54 0 0 1 0.18,-1.94a4,4 0 0 1 2.43,-2.19z"/>
  <circle id="svg_28" fill="#f8c244" r="22.05" cy="33.41" cx="125.58"/>
  <circle id="svg_29" fill="#e8a825" transform="rotate(-80.77999877929688 43.470001220703075,161.64999389648435) " r="18.79" cy="222.15999" cx="183.2"/>
  <path id="svg_30" fill="#f8c244" d="m123.85,45.25l0,-3a8.7,8.7 0 0 1 -4.55,-1.35l0.71,-2a8,8 0 0 0 4.27,1.28c2.13,0 3.55,-1.22 3.55,-2.92s-1.16,-2.65 -3.36,-3.56c-3.05,-1.19 -4.93,-2.57 -4.93,-5.16s1.76,-4.35 4.51,-4.8l0,-3l1.85,0l0,2.89a8,8 0 0 1 3.88,1l-0.74,2a7.07,7.07 0 0 0 -3.75,-1c-2.3,0 -3.16,1.37 -3.16,2.56c0,1.55 1.1,2.33 3.69,3.4c3.07,1.25 4.63,2.8 4.63,5.46a5.19,5.19 0 0 1 -4.71,5.07l0,3.1l-1.89,0.03z"/>
  <path id="svg_31" fill="#f9d0b4" d="m130.91,51.61a3.66,3.66 0 0 1 1.72,-2.36a0.5,0.5 0 0 1 0.43,0a1,1 0 0 1 0.27,0.4a7.22,7.22 0 0 1 0.3,2.41a13.14,13.14 0 0 1 0,1.66a3.68,3.68 0 0 1 -1.55,2.84c-0.5,0.27 -2,0.37 -2,-0.81a13,13 0 0 1 0.4,-2a18.69,18.69 0 0 1 0.43,-2.14z"/>
  <path id="svg_32" fill="#473f47" d="m141.18,132.66s0.65,49.61 3.19,68c2.49,17.93 4.19,32 4.26,33.28l6,-0.77l5.9,-77.69l7.49,32.33l15.05,1.09l-0.58,-51.43l-41.31,-4.81z"/>
  <path id="svg_33" fill="#473f47" d="m135.18,217.83s49.6,-19.43 47.89,-28.89l-15.09,-1.17l-36.83,26.34l4.03,3.72z"/>
  <path id="svg_34" fill="#473f47" d="m147.56,238.8a0.66,0.66 0 0 0 0,0.48a0.69,0.69 0 0 0 0.41,0.24c4.41,1.38 8.88,2.78 13.5,2.93c0.63,0 1.41,-0.09 1.59,-0.68a1.44,1.44 0 0 0 -0.24,-1.07a14.16,14.16 0 0 0 -5.1,-5.24c-1.3,-0.78 -2.83,-1.43 -3.51,-2.79a18.19,18.19 0 0 1 -3,0.47c-0.68,0 -1.89,-0.24 -2.4,0.29a5.92,5.92 0 0 0 -0.7,2.4c-0.26,0.98 -0.41,1.98 -0.55,2.97z"/>
  <path id="svg_35" fill="#473f47" d="m136.28,218.12a1.76,1.76 0 0 1 -0.16,-1.15a10.19,10.19 0 0 0 -1.24,5.45a35.5,35.5 0 0 1 -0.13,5.65a2,2 0 0 1 -1,1.66c-0.79,0.33 -1.63,-0.32 -2.19,-1a15.64,15.64 0 0 1 -3.59,-12.24a1.32,1.32 0 0 1 0.18,-0.59a1.65,1.65 0 0 1 1,-0.52c1.9,-0.48 2.72,-1.75 4.16,-2.85c1.34,1.37 2.11,3.9 2.97,5.59z"/>
  <path id="svg_36" fill="url(#linear-gradient)" d="m206.91,108.95l-5.23,1l-5,-7.39c-2.42,-2.27 -2.38,-2.74 -3.75,0.28c-3.76,8.26 -9.93,23.37 -10.41,34.68l-3,-0.34a5.13,5.13 0 0 1 -0.88,-2.75c-0.23,-3.07 0.79,-6.58 -1.19,-8.93c-0.46,-0.54 -1.1,-1.1 -1,-1.81a2.12,2.12 0 0 1 0.69,-1.12a38.44,38.44 0 0 0 7.2,-10.88c1,-2.27 1.78,-4.64 2.94,-6.84a45,45 0 0 1 4,-6c1,-1.35 2.2,-2.8 3.85,-3.16c1.89,-0.42 3.83,0.78 5,2.33a27.11,27.11 0 0 1 2.54,5.22a10.14,10.14 0 0 0 1.85,2.94c0.55,0.57 1.73,0.79 2.15,1.31a1.46,1.46 0 0 1 0.24,1.46z"/>
 </g>
</svg>