<?xml version="1.0" encoding="UTF-8" standalone="no"?>
<!DOCTYPE svg PUBLIC "-//W3C//DTD SVG 1.1//EN" "http://www.w3.org/Graphics/SVG/1.1/DTD/svg11.dtd">
<svg version="1.1" xmlns="http://www.w3.org/2000/svg" xmlns:xlink="http://www.w3.org/1999/xlink" preserveAspectRatio="xMidYMid meet" viewBox="0 0 640 640" width="640" height="640"><defs><path d="M222.84 72.11C198 80.16 172.76 89.77 151.83 105.4C137.33 117.68 124.19 132.38 114.39 148.4C101.33 175.4 111.56 205.14 114.25 233.23C82.06 258.63 49.98 286.57 32.92 324.38C21.07 348.92 19.28 376.84 21.41 403.56C24.73 432.24 31.57 462.22 51.37 484.55C71.81 511.62 96.85 535.71 125.87 553.68C163.99 575.35 204.79 594.02 248.69 600.37C289.57 606.93 331.66 606.6 372.46 599.69C418.59 590.34 464.48 576.59 504.51 551.63C543.14 528.5 573.61 492.7 589.02 450.82C598.02 421.75 603.28 390.19 597.73 360.04C592.53 345.4 591.21 328.38 580.92 316.2C602.11 304.49 625.35 290.18 631.49 265.44C635.71 249.3 637.01 229.46 624.67 216.36C618.77 208.12 608.92 201.82 599.55 198.23C577.68 194.32 554.96 193.34 532.88 194.77C524.14 197.55 512.17 195.58 506.48 203.73C506.49 182.21 508.34 159.58 497.02 140.18C485.52 123.35 469.94 109.15 452.64 97.91C422.64 77.85 386.12 70.11 350.95 63.42C348.55 63.18 336.6 62.01 315.07 59.9C273.34 61.13 242.59 65.2 222.84 72.11ZM596.91 243.14C602.56 251.22 589.53 260.86 583.77 266.9C576.61 272.94 566.45 281.28 558.47 282.49C547.76 271.04 537.32 259.34 525.86 248.59C537.08 243.85 549.14 241.88 560.89 238.78C572.83 238.81 586.35 237.97 596.91 243.14Z" id="g37dQ2CvXX"></path><path d="M279.74 563.43C306.81 565.68 334.03 569.59 361.01 570.81C395.82 560.15 431.74 552.55 465.81 539.81C483.65 531.58 503.37 526.07 520 516.09C534.91 500.68 551.18 486.17 565.25 470.2C574.22 447.57 588.44 426.44 589.79 401.63C594.89 382.01 587.37 362.3 585.86 342.63C580.75 336.28 581.49 316.62 571.88 320.5C545.24 331.5 519.46 344.44 495.16 359.84C499.9 378.15 498.74 397.46 498.4 416.08C492.4 431.28 489.7 448.39 481.65 462.4C467.34 476.21 455.4 492.95 439.56 504.86C422.23 514.12 405.47 525.15 387.79 533.3C363.01 534.62 338.17 539.48 313.43 538.5C267.7 533.68 222.29 526.35 177.39 516.56C177.39 516.85 177.39 518.28 177.39 520.86C222.71 540.43 256.83 554.62 279.74 563.43Z" id="ch0S3DNS8"></path><path d="M549.12 329.82C569.33 320.04 590.06 310.03 607.42 296.08C615.09 283.82 624.34 270.48 624.56 256.08C618.11 247 616.76 232.31 603.59 230.58C597.79 226.61 577.1 225.14 584.65 216.22C588.72 209.35 609.32 206.29 599.92 197.72C575.9 194.98 551.3 192.62 527.29 194.71C517.41 195.25 504.22 200.62 516.27 209.32C522.28 219.8 517.36 226.54 507.55 231.61C499.17 237.46 500.49 249.94 497.15 258.88C491.64 272.59 509.52 269.15 511.03 258.5C520.21 245.57 538.98 244.97 553.02 239.28C565.46 235.68 579.57 237.61 591.98 240.81C605.25 243.68 591.19 256.84 587.12 262.82C568.5 278.21 548.29 291.21 526.53 301.89C510.81 310.51 495.06 319.06 478.96 326.97C475.45 346.57 464.84 363.45 460.82 382.9C485.06 358.02 518.78 345.84 549.12 329.82Z" id="a110vZwim7"></path><path d="M589.06 308.15C603 298.56 617.5 287.57 621.85 270.59C627.88 259.45 623.25 247.03 614.01 239.22C608.09 229.21 594.13 234.05 584.32 231.45C566.16 228.98 585.57 240.65 594.06 237.61C604.77 236.87 616.45 244.47 616.89 255.56C622.15 266.25 608.87 273.8 604.86 282.92C587.1 298.89 568.2 313.66 546.7 324.6C526.83 336.3 506.78 347.7 486.79 359.2C521.07 342.66 557.24 328.99 589.06 308.15Z" id="cJw8PKeq5"></path><path d="M536.68 298.35C553.52 290.93 567.59 279.05 582.8 269C588.78 254.52 571.85 273.86 566.4 276.24C543.45 294.54 515.11 304.62 489.8 319.37C478.08 321.91 475.24 330.02 475.06 340.98C474.69 343.21 474.33 345.44 473.96 347.67C492.27 328.29 511.14 308.32 536.68 298.35Z" id="b2UORqNlXA"></path><path d="M552.78 284.72C527.08 298.97 502.21 315.75 473.96 324.67C484.75 305.37 484.39 282.64 492.73 262.59C505.28 274.5 503.93 256.14 514.18 252.72C514.25 252.68 514.6 252.49 515.24 252.14C532.85 265.55 545.36 276.4 552.78 284.72Z" id="e2Kh7cPs1A"></path><path d="M329.96 481.84C301.24 486.34 272.91 495.33 243.55 492.58C219.38 491.89 194.89 492.75 170.92 491.08C136.15 477.33 100.94 464.53 67.99 446.82C58.04 447.75 46.62 456.49 56.14 465.68C67.4 482.79 79.75 498.98 95.78 512.09C110.07 524.14 121.15 540.89 140.05 546.21C182.3 565.36 226.48 580.27 271.29 592.48C293.9 594.07 316.63 601.03 339.07 594.92C370.39 590 401.94 584.71 432.55 576.97C455.35 565.62 479.86 556.95 501.58 543.91C521.06 527.48 543.39 513.79 557.46 492.15C564.22 485.2 568.11 474.81 577.8 471.4C562.02 497.81 542.61 522.42 517.53 540.89C494.72 558.55 468.06 570.76 441.05 580.8C400.67 594.06 358.66 604.76 315.75 602.61C287.22 603.91 258.54 601.89 230.78 595.23C204.24 588.53 177.78 580.29 153.26 568.35C129.19 552.22 102.15 539.75 82.84 517.74C62.76 497.97 42.57 476.78 31.51 450.77C22.18 425.95 18.86 399.41 21.53 373.1C20.41 357.88 24.74 343.7 30.64 329.8C35.13 315.45 40.4 301.52 51.28 290.58C67.82 267.09 91.74 250.15 113.03 231.1C123.86 279.74 133.27 328.98 148.96 376.29C160.35 393.81 171 411.92 187.51 425.36C199.9 438.87 217.31 446.57 232.84 455.91C254.09 461.53 274.89 471.75 297.4 468.44C323.28 469.18 348.84 464.11 373.62 457.22C380.58 454.98 387.55 452.75 394.52 450.52C372.9 460.66 352.09 473.15 329.96 481.84Z" id="d1idES4uDf"></path><path d="M284.6 475.09C261.11 474.27 237.15 476.76 213.95 473.79C180.32 464.38 146.18 456.09 112.87 445.97C98.11 436.1 81.27 428.51 67.83 417.21C60.05 406.37 50.33 392.89 35.1 394.95C21.82 398.46 16.91 394.33 21.76 381.29C25.48 361.48 23.45 339.96 35.58 322.7C41.63 307.1 52.69 294.91 64.4 283.16C78.01 267.78 93.34 253.95 109.27 240.93C120.47 239.65 116.03 257.48 120.24 264.76C128.47 301.86 135.85 339.19 149 375C155.28 389.36 166.77 401.4 175.91 414.21C184.87 426.79 197.72 434.73 211.23 441.9C225.73 451.12 240.74 459.19 257.82 462.61C271.39 467.18 285.01 471.3 299.49 468.84C316.99 468.18 334.49 467.43 351.98 466.49C329.67 470.86 307.58 477.19 284.6 475.09Z" id="b7MpDyeVa"></path><path d="M366.9 364.4C353.62 369.96 339.97 373.48 325.43 372.05C303.81 372.56 282.16 373.35 261.04 367.93C244.74 365.76 228.74 362.69 214.59 354C199.93 347.94 186.21 340.51 175.59 328.63C159.56 313.72 141.53 300.54 130.68 281.21C115.3 257.71 114.51 228.68 108.41 202.06C105.24 186.39 104.6 170.72 108.09 155.04C109.52 143.28 122.02 136.3 128.24 126.61C140.12 114.89 124.38 136.03 122.01 141.26C115.51 152.98 108.68 166.58 113.88 179.95C115.6 193.23 122.22 206.16 131.32 215.9C150.86 233.83 172.66 249.67 195.14 263.58C218.06 271.82 240.44 282.03 265.08 283.98C298.03 289.47 331.9 292.35 365.22 288.75C394.55 286.64 420.66 272.38 448.1 263.21C464.8 254.83 446.38 269.87 442.04 275.52C430.92 289.41 416.06 299.79 403.34 311.82C397.43 321.42 392.66 331.32 394.18 342.83C397.73 346.91 411.66 335.15 419.26 333.04C424.1 331.79 429.68 332.86 434.75 332.5C412.79 344.56 391.46 358 366.9 364.4Z" id="ahSbjowh4"></path><path d="M500.86 223.72C495.3 235.81 493.05 248.67 492.1 261.82C493.15 262.44 494.19 263.05 495.23 263.67C497.55 250.39 503.07 237.36 500.86 223.72Z" id="a5stcXGX8"></path><path d="M227.5 109.4C242.28 103.7 257.37 99.59 273.4 100.67C304.1 98.5 334.96 101.13 365.34 105.23C381.76 108.87 399.13 110.16 412.58 121.16C430.65 131.41 448.52 141.94 462.63 157.32C474.62 165.13 478.51 178.97 481.93 191.91C484.8 199.74 480.12 219.1 487.46 202.24C496.05 191.96 495.36 179.09 495.91 166.57C498.37 153.81 490.15 142.14 485.35 130.94C471.6 114.55 455.14 100.36 436.49 89.73C413.37 79.34 389.36 71.59 364.49 66.41C344.76 61.48 323.89 64.14 303.67 63.59C288.69 64.12 273.86 63.65 259.4 68.22C246.12 79.91 236.08 94.27 227.5 109.4Z" id="a1myl8ttL3"></path><path d="M250.04 74.64C240.82 84.46 234.48 96.25 227.5 107.61C242.19 100.98 257.51 97.08 273.75 97.21C281.22 87.33 284.9 74 291.93 63.36C287.55 63.76 283.17 64.17 278.79 64.58C268.56 66.78 255.12 63.23 250.04 74.64Z" id="c1YugBKIYT"></path><path d="M174.24 135.25C158.7 145.04 145.29 159.35 136.93 175.43C132.27 186.15 129.07 199.07 132.22 210.22C145.34 228.51 166.47 238.55 183.71 252.6C210.94 262.69 237.98 275.51 267.04 278.93C302.74 281.84 339.13 280.96 374.27 273.96C401.72 265.97 430.68 259.81 453.34 241.52C467.27 233.38 476.7 219.51 484.6 205.89C481.33 187.75 478.96 167.23 462.29 155.8C450.06 143.84 437.08 132.92 421.07 126.19C403.73 115.44 384.43 108.37 364.32 104.86C328.64 101.16 292.84 101.41 257.02 101.01C244.84 99.21 234.78 108.65 223.75 112.47C206.26 118.1 188.85 123.88 174.24 135.25Z" id="a3js7RVced"></path><path d="M169.73 154.5C164.09 160 154.18 171.31 159.68 177.94C182.7 172.96 205.27 164.09 226.24 153.04C242.63 147.73 259.02 142.43 276.52 143.48C310.1 142.05 343.97 140.53 377.46 143.27C396.1 146.52 372.34 140.22 365.93 137.83C345.61 129.77 324.16 126.33 302.56 123.54C314.6 113.18 294.5 110.93 286.57 114.67C268.02 118.11 249.48 119.53 230.62 119.85C209.55 130.18 187.15 138.4 169.73 154.5Z" id="b4HcONrYHP"></path><path d="M125.32 170.87C121.42 181.24 123.51 193.44 127.09 203.42C134.91 219.55 129.82 195.76 130.36 189.39C135.88 171.76 144.14 154.04 145.35 135.52C136.55 146.25 126.79 156.51 125.32 170.87Z" id="o4QWYXC3St"></path></defs><g><g><g><use xlink:href="#g37dQ2CvXX" opacity="1" fill="#00712f" fill-opacity="1"></use><g><use xlink:href="#g37dQ2CvXX" opacity="1" fill-opacity="0" stroke="#000000" stroke-width="1" stroke-opacity="0"></use></g></g><g><use xlink:href="#ch0S3DNS8" opacity="1" fill="#01a847" fill-opacity="1"></use><g><use xlink:href="#ch0S3DNS8" opacity="1" fill-opacity="0" stroke="#000000" stroke-width="1" stroke-opacity="0"></use></g></g><g><use xlink:href="#a110vZwim7" opacity="1" fill="#00712f" fill-opacity="1"></use><g><use xlink:href="#a110vZwim7" opacity="1" fill-opacity="0" stroke="#000000" stroke-width="1" stroke-opacity="0"></use></g></g><g><use xlink:href="#cJw8PKeq5" opacity="1" fill="#01a847" fill-opacity="1"></use><g><use xlink:href="#cJw8PKeq5" opacity="1" fill-opacity="0" stroke="#000000" stroke-width="1" stroke-opacity="0"></use></g></g><g><use xlink:href="#b2UORqNlXA" opacity="1" fill="#00441c" fill-opacity="1"></use><g><use xlink:href="#b2UORqNlXA" opacity="1" fill-opacity="0" stroke="#000000" stroke-width="1" stroke-opacity="0"></use></g></g><g><use xlink:href="#e2Kh7cPs1A" opacity="1" fill="#01a847" fill-opacity="1"></use><g><use xlink:href="#e2Kh7cPs1A" opacity="1" fill-opacity="0" stroke="#000000" stroke-width="1" stroke-opacity="0"></use></g></g><g><use xlink:href="#d1idES4uDf" opacity="1" fill="#00441c" fill-opacity="1"></use><g><use xlink:href="#d1idES4uDf" opacity="1" fill-opacity="0" stroke="#000000" stroke-width="1" stroke-opacity="0"></use></g></g><g><use xlink:href="#b7MpDyeVa" opacity="1" fill="#00441c" fill-opacity="1"></use><g><use xlink:href="#b7MpDyeVa" opacity="1" fill-opacity="0" stroke="#000000" stroke-width="1" stroke-opacity="0"></use></g></g><g><use xlink:href="#ahSbjowh4" opacity="1" fill="#00712f" fill-opacity="1"></use><g><use xlink:href="#ahSbjowh4" opacity="1" fill-opacity="0" stroke="#000000" stroke-width="1" stroke-opacity="0"></use></g></g><g><use xlink:href="#a5stcXGX8" opacity="1" fill="#00441c" fill-opacity="1"></use><g><use xlink:href="#a5stcXGX8" opacity="1" fill-opacity="0" stroke="#000000" stroke-width="1" stroke-opacity="0"></use></g></g><g><use xlink:href="#a1myl8ttL3" opacity="1" fill="#00441c" fill-opacity="1"></use><g><use xlink:href="#a1myl8ttL3" opacity="1" fill-opacity="0" stroke="#000000" stroke-width="1" stroke-opacity="0"></use></g></g><g><use xlink:href="#c1YugBKIYT" opacity="1" fill="#01a847" fill-opacity="1"></use><g><use xlink:href="#c1YugBKIYT" opacity="1" fill-opacity="0" stroke="#000000" stroke-width="1" stroke-opacity="0"></use></g></g><g><use xlink:href="#a3js7RVced" opacity="1" fill="#502d16" fill-opacity="1"></use><g><use xlink:href="#a3js7RVced" opacity="1" fill-opacity="0" stroke="#000000" stroke-width="1" stroke-opacity="0"></use></g></g><g><use xlink:href="#b4HcONrYHP" opacity="1" fill="#b6632c" fill-opacity="1"></use><g><use xlink:href="#b4HcONrYHP" opacity="1" fill-opacity="0" stroke="#000000" stroke-width="1" stroke-opacity="0"></use></g></g><g><use xlink:href="#o4QWYXC3St" opacity="1" fill="#00712f" fill-opacity="1"></use><g><use xlink:href="#o4QWYXC3St" opacity="1" fill-opacity="0" stroke="#000000" stroke-width="1" stroke-opacity="0"></use></g></g></g></g></svg>