<svg id="Layer_1" enable-background="new 0 0 512.007 512.007" height="512" viewBox="0 0 512.007 512.007" width="512" xmlns="http://www.w3.org/2000/svg" fill="#381201"><path d="m504.003 368.003h-32v-200c0-4.418-3.582-8-8-8h-18.16c15.953-13.03 26.16-32.843 26.16-55v-17c0-4.418-3.582-8-8-8h-17c-16.174 0-31.474 5.373-43.951 15.253-7.036-7.526-16.457-12.789-27.049-14.574v-24.679c0-13.233 10.767-24 24-24 4.418 0 8-3.582 8-8s-3.582-8-8-8c-22.056 0-40 17.944-40 40v24.679c-37.026 6.241-52.997 51.142-27.739 79.321h-284.261c-4.418 0-8 3.582-8 8v200h-32c-5.206 0-9.021 4.9-7.761 9.94l6.909 27.639c5.974 23.908 26.704 40.903 51.05 42.314l8.743 26.229c4.366 13.086 16.566 21.878 30.358 21.878h317.4c13.792 0 25.992-8.792 30.359-21.88l8.742-26.227c24.346-1.412 45.075-18.406 51.049-42.313l6.91-27.64c1.265-5.051-2.563-9.94-7.759-9.94zm-48-272v9c0 29.388-23.168 53.466-52.199 54.929 12.525-14.028 15.735-34.05 8.11-51.282 16.37-13.615 32.102-12.647 44.089-12.647zm-120 32c0-17.645 14.355-32 32-32s32 14.355 32 32-14.355 32-32 32-32-14.355-32-32zm-280 48h400v192h-48v-80c0-4.418-3.582-8-8-8s-8 3.582-8 8c0 7.147-8.668 10.64-13.653 5.674-1.513-1.519-2.347-3.534-2.347-5.674v-39.591c0-13.379-10.743-24.409-24.003-24.409-13.263 0-23.997 10.722-23.997 24v7.591c0 4.603-3.559 8.374-7.934 8.408-4.657 0-8.066-3.694-8.066-7.999v-40c0-13.233-10.767-24-24-24h-232zm0 104h304c0 7.871-.334 11.191 1.362 16h-57.362c-13.233 0-24 10.767-24 24 0 4.411-3.589 8-8 8s-8-3.589-8-8c0-13.233-10.767-24-24-24h-184zm304-16h-17.478c3.532-9.715-.984-16.847 3.804-21.653 5.066-5.046 13.674-1.466 13.674 6.063zm-72-56c4.411 0 8 3.589 8 8 0 42.812-.466 42.816 1.362 48h-241.362v-56zm-232 104h184c4.411 0 8 3.589 8 8 0 13.233 10.767 24 24 24s24-10.767 24-24c0-4.411 3.589-8 8-8h88v56h-336zm433.328 89.701c-4.457 17.84-20.416 30.3-38.809 30.3-9.316 0-249.213 0-258.52 0-4.418 0-8 3.582-8 8s3.582 8 8 8h244.9l-7.02 21.058c-2.184 6.545-8.284 10.942-15.181 10.942h-317.4c-6.896 0-12.997-4.397-15.18-10.94l-7.021-21.06h52.9c4.418 0 8-3.582 8-8s-3.582-8-8-8c-23.501 0-45.048 0-66.52 0-18.393 0-34.352-12.46-38.81-30.301l-4.425-17.699h475.508z"/></svg>